<svg xmlns="http://www.w3.org/2000/svg" xmlns:xlink="http://www.w3.org/1999/xlink" width="200" height="175" viewBox="0 0 200 175">
  <defs>
    <style>
      .cls-1 {
        fill: url(#linear-gradient);
      }

      .cls-2 {
        fill: #e19f01;
      }

      .cls-3 {
        fill: url(#linear-gradient-2);
      }

      .cls-4 {
        fill: #114b8a;
      }
    </style>
    <linearGradient id="linear-gradient" x1="19.12" y1="17.31" x2="185.84" y2="184.03" gradientUnits="userSpaceOnUse">
      <stop offset="0" stop-color="#ffd65e"/>
      <stop offset="1" stop-color="#f8b90d"/>
    </linearGradient>
    <linearGradient id="linear-gradient-2" x1="56.08" y1="197.58" x2="142.92" y2="110.74" gradientUnits="userSpaceOnUse">
      <stop offset="0" stop-color="#1290dc"/>
      <stop offset="1" stop-color="#0362b6"/>
    </linearGradient>
  </defs>
  <title>explorer</title>
  <g id="Layer_2" data-name="Layer 2">
    <g id="Layer_1-2" data-name="Layer 1">
      <g>
        <path class="cls-1" d="M200,29.88V166.25a8.75,8.75,0,0,1-8.75,8.75H8.75A8.75,8.75,0,0,1,0,166.25V40.63A10.12,10.12,0,0,1,10.12,30.5H68.25l12-8.75H191.88A8.13,8.13,0,0,1,200,29.88Z"/>
        <path class="cls-2" d="M191.88,19H81.42L70.64,5.86A16,16,0,0,0,58.25,0H10.12A10.12,10.12,0,0,0,0,10.12V40.63A10.12,10.12,0,0,1,10.12,30.5H68.25l12-8.75H191.88A8.13,8.13,0,0,1,200,29.88V27.12A8.13,8.13,0,0,0,191.88,19Z"/>
        <g>
          <path class="cls-3" d="M60.5,117.5h78a27,27,0,0,1,27,27V175a0,0,0,0,1,0,0H33.5a0,0,0,0,1,0,0V144.5A27,27,0,0,1,60.5,117.5Z"/>
          <path class="cls-4" d="M139.5,150h-80a3.5,3.5,0,0,1,0-7h80a3.5,3.5,0,0,1,0,7Z"/>
        </g>
      </g>
    </g>
  </g>
</svg>
